<svg xmlns="http://www.w3.org/2000/svg" viewBox="0 0 120 90" fill="none">
  <!-- Speech bubble body — Penn navy -->
  <path d="M8 6 Q8 0 14 0 L106 0 Q112 0 112 6 L112 58 Q112 64 106 64 L70 64 L60 78 L50 64 L14 64 Q8 64 8 58 Z" fill="#011F5B"/>

  <!-- Waveform bars — white, varying heights, centered vertically in bubble -->
  <rect x="22" y="24" width="8" height="22" rx="4" fill="white"/>
  <rect x="36" y="14" width="8" height="32" rx="4" fill="white"/>
  <rect x="50" y="20" width="8" height="26" rx="4" fill="white"/>
  <rect x="64" y="10" width="8" height="36" rx="4" fill="white"/>
  <rect x="78" y="18" width="8" height="28" rx="4" fill="white" opacity="0.9"/>
  <rect x="92" y="26" width="8" height="18" rx="4" fill="white" opacity="0.7"/>

  <!-- "LISTEN" pulse dot — subtle accent -->
  <circle cx="60" cy="86" r="2.5" fill="#3E7CB9"/>
</svg>
